<?xml version="1.0" encoding="UTF-8"?>
<svg id="Layer_1" data-name="Layer 1" xmlns="http://www.w3.org/2000/svg" xmlns:xlink="http://www.w3.org/1999/xlink" viewBox="0 0 1080 455">
  <defs>
    <style>
      .cls-1 {
        fill: url(#linear-gradient-2);
      }

      .cls-2 {
        fill: url(#linear-gradient-6);
      }

      .cls-3 {
        fill: url(#linear-gradient-5);
      }

      .cls-4 {
        fill: url(#linear-gradient-7);
      }

      .cls-5 {
        fill: #f15b27;
      }

      .cls-6 {
        fill: url(#linear-gradient-3);
      }

      .cls-7 {
        fill: url(#linear-gradient);
      }

      .cls-8 {
        fill: #f69e22;
      }

      .cls-9 {
        fill: url(#linear-gradient-4);
      }
    </style>
    <linearGradient id="linear-gradient" x1="139.71" y1="259.79" x2="543.72" y2="259.79" gradientUnits="userSpaceOnUse">
      <stop offset="0" stop-color="#f15b27"/>
      <stop offset=".02" stop-color="#f15c26"/>
      <stop offset=".44" stop-color="#f38024"/>
      <stop offset=".78" stop-color="#f59622"/>
      <stop offset="1" stop-color="#f69e22"/>
    </linearGradient>
    <linearGradient id="linear-gradient-2" x1="328.36" y1="338.32" x2="432.54" y2="338.32" xlink:href="#linear-gradient"/>
    <linearGradient id="linear-gradient-3" x1="455.09" y1="338.32" x2="554.12" y2="338.32" xlink:href="#linear-gradient"/>
    <linearGradient id="linear-gradient-4" x1="576.54" y1="338.32" x2="673.12" y2="338.32" xlink:href="#linear-gradient"/>
    <linearGradient id="linear-gradient-5" x1="690.32" y1="338.32" x2="786.36" y2="338.32" xlink:href="#linear-gradient"/>
    <linearGradient id="linear-gradient-6" x1="797.22" y1="338.23" x2="909.54" y2="338.23" xlink:href="#linear-gradient"/>
    <linearGradient id="linear-gradient-7" x1="927.64" y1="338.32" x2="1030.2" y2="338.32" xlink:href="#linear-gradient"/>
  </defs>
  <path class="cls-7" d="m294.63,246.66c-.91,1.03-32.66,37.45-34.99,92.91-1.29,30.67-23.47,57.92-54.03,60.94-17.7,1.75-36.39-3.99-50.62-22.25-35.57-45.64-2.94-88.58,35.21-114.68,38.15-26.1,40.97-57.22,41.97-82.27,1.1-27.6,30.06-77.62,82.52-57.37,52.46,20.25,87.26,21.23,117.92,4.6,30.66-16.63,102.26-17.11,110.61,39.4,4.97,36.12-28.41,77.7-90.12,64.91-40.73-8.44-97.24-51.19-158.36,13.66-.07.07-.06.06-.12.13Z"/>
  <circle class="cls-5" cx="84.62" cy="363.71" r="34.82"/>
  <circle class="cls-8" cx="555.27" cy="83.95" r="34.82"/>
  <path class="cls-1" d="m432.54,290.48v95.68c0,9.49-7.69,17.18-17.18,17.18h0c-9.49,0-17.18-7.69-17.18-17.18v-17.73c0-9.49-7.69-17.18-17.18-17.18h-1.09c-9.49,0-17.18,7.69-17.18,17.18v17.73c0,9.49-7.69,17.18-17.18,17.18h0c-9.49,0-17.18-7.69-17.18-17.18v-95.68c0-9.49,7.69-17.18,17.18-17.18h0c9.49,0,17.18,7.69,17.18,17.18v16.46c0,9.49,7.69,17.18,17.18,17.18h1.09c9.49,0,17.18-7.69,17.18-17.18v-16.46c0-9.49,7.69-17.18,17.18-17.18h0c9.49,0,17.18,7.69,17.18,17.18Z"/>
  <path class="cls-6" d="m538.02,273.3h0c12.12,0,19.88,12.91,14.19,23.61l-28.25,53.15c-1.23,2.32-1.88,4.91-1.88,7.54v29.66c0,8.88-7.2,16.07-16.07,16.07h-2.22c-8.88,0-16.07-7.2-16.07-16.07v-29.08c0-2.65-.66-5.26-1.91-7.6l-28.78-53.61c-5.75-10.71,2.01-23.67,14.16-23.67h.45c6.37,0,12.14,3.76,14.71,9.59l11.15,25.31c2.17,4.7,5.6,13.93,7.6,21.52h.72c1.45-7.05,4.16-15.01,6.15-19.71l11.24-26.85c2.5-5.98,8.35-9.86,14.82-9.86Z"/>
  <path class="cls-9" d="m662.86,340.11c-4.07-3.49-4.32-9.8-.91-13.92,3.97-4.79,6.65-11.31,6.65-19.61,0-21.16-16.63-33.28-44.49-33.28h-36.9c-5.89,0-10.67,4.77-10.67,10.66v108.71c0,5.89,4.78,10.67,10.67,10.67h35.27c33.82,0,50.64-14.66,50.64-39.97,0-9.17-3.78-17.69-10.26-23.26Zm-51.95-42.76h6.14c9.95,0,15.37,3.07,15.37,13.38,0,7.96-4.52,14.11-13.74,14.11h-7.77v-27.49Zm22.19,77.59c-2.49,3.03-6.28,4.88-11.53,4.88-5.89,0-10.66-4.77-10.66-10.66v-10.86c0-5.89,4.77-10.66,10.66-10.66h.54c10.13,0,14.65,6.14,14.65,15.37,0,4.7-1.18,8.91-3.66,11.93Z"/>
  <path class="cls-3" d="m769.77,355.01c-2.14-4.51-.99-9.89,2.83-13.1,8.35-7.01,13.76-17.61,13.76-31.91,0-27.12-19.53-36.71-48.47-36.71h-36.54c-6.09,0-11.03,4.93-11.03,11.02v107.98c0,6.09,4.94,11.03,11.03,11.03h12.3c6.09,0,11.03-4.94,11.03-11.03v-32.67c0-1.67.67-3.18,1.76-4.27,1.1-1.1,2.61-1.77,4.27-1.77,2.38,0,4.54,1.4,5.51,3.57l17.73,39.64c1.78,3.98,5.72,6.53,10.07,6.53h11.22c8.1,0,13.44-8.45,9.97-15.77l-15.44-32.56Zm-32.42-26.37h-1.63c-6.09,0-11.02-4.94-11.02-11.03v-8.69c0-3.05,1.23-5.8,3.23-7.79,1.99-2,4.74-3.23,7.79-3.23,10.85,0,16.28,2.71,16.28,15.01,0,10.48-6.51,15.74-14.65,15.74Z"/>
  <path class="cls-2" d="m854.74,270.58c-34.73,0-57.52,23.69-57.52,66.02,0,52.26,23.51,69.27,55.53,69.27s56.79-17.72,56.79-70.18c0-42.14-18.26-65.11-54.8-65.11Zm-1.45,108.52c-12.66,0-19.89-11.39-19.89-42.32s9.58-38.7,20.62-38.7,19.35,7.95,19.35,37.8c0,35.09-8.68,43.22-20.08,43.22Z"/>
  <path class="cls-4" d="m1030.2,290.21v96.22c0,9.34-7.57,16.91-16.91,16.91h-2.7c-6.19,0-11.89-3.39-14.85-8.83l-26.31-48.33c-3.61-6.51-6.87-13.93-9.4-21.88l-.36.18c1.09,7.59,1.81,16.1,1.81,24.42v37.53c0,9.34-7.57,16.91-16.91,16.91h0c-9.34,0-16.91-7.57-16.91-16.91v-96.22c0-9.34,7.57-16.91,16.91-16.91h4.22c6.35,0,12.16,3.55,15.05,9.2l25.31,49.4c3.26,6.33,7.05,13.93,9.04,20.62l.36-.18c-1.27-7.59-2.17-15.91-2.17-22.79v-39.33c0-9.34,7.57-16.91,16.91-16.91h0c9.34,0,16.91,7.57,16.91,16.91Z"/>
</svg>